<svg width="47" height="47" viewBox="0 0 47 47" fill="none" xmlns="http://www.w3.org/2000/svg">
<path d="M26.4399 27.9006V26.2483C26.4399 24.7217 25.1309 23.4944 23.5024 23.4944C21.874 23.4944 20.5649 24.7217 20.5649 26.2483V27.9006" stroke="black" stroke-width="2.9375" stroke-linecap="round" stroke-linejoin="round"/>
<path d="M27.9087 38.1819H19.0962C18.3171 38.1819 17.57 37.8724 17.0191 37.3215C16.4682 36.7706 16.1587 36.0235 16.1587 35.2444V30.8381C16.1587 30.0591 16.4682 29.3119 17.0191 28.761C17.57 28.2101 18.3171 27.9006 19.0962 27.9006H27.9087C28.6878 27.9006 29.4349 28.2101 29.9858 28.761C30.5367 29.3119 30.8462 30.0591 30.8462 30.8381V35.2444C30.8462 36.0235 30.5367 36.7706 29.9858 37.3215C29.4349 37.8724 28.6878 38.1819 27.9087 38.1819Z" fill="black"/>
<path d="M38.1899 20.3044V38.1819C38.1899 39.3505 37.7257 40.4713 36.8994 41.2976C36.073 42.1239 34.9523 42.5881 33.7837 42.5881H13.2212C12.0526 42.5881 10.9318 42.1239 10.1055 41.2976C9.27917 40.4713 8.81494 39.3505 8.81494 38.1819V8.80689C8.81494 7.63828 9.27917 6.51753 10.1055 5.6912C10.9318 4.86486 12.0526 4.40063 13.2212 4.40063H22.2861C23.0649 4.40075 23.8118 4.71014 24.3626 5.26077L37.3298 18.228C37.8804 18.7788 38.1898 19.5256 38.1899 20.3044Z" stroke="black" stroke-width="2.9375" stroke-linejoin="round"/>
<path d="M23.4946 4.66504V16.1507C23.4946 16.9297 23.8041 17.6769 24.355 18.2278C24.9059 18.7787 25.6531 19.0882 26.4321 19.0882H37.9178" stroke="black" stroke-width="2.9375" stroke-linecap="round" stroke-linejoin="round"/>
</svg>
