<svg width="56" height="56" viewBox="0 0 56 56" fill="none" xmlns="http://www.w3.org/2000/svg">
<path d="M33.8337 37.3333H22.167V47.8333H33.8337V37.3333Z" stroke="black" stroke-width="4.66667" stroke-linecap="round" stroke-linejoin="round"/>
<path d="M47.833 9.3335H8.16634C6.87768 9.3335 5.83301 10.3782 5.83301 11.6668V35.0002C5.83301 36.2888 6.87768 37.3335 8.16634 37.3335H47.833C49.1217 37.3335 50.1663 36.2888 50.1663 35.0002V11.6668C50.1663 10.3782 49.1217 9.3335 47.833 9.3335Z" stroke="black" stroke-width="4.66667"/>
<path d="M16.333 47.8333H39.6663" stroke="black" stroke-width="4.66667" stroke-linecap="round" stroke-linejoin="round"/>
<path d="M24.5909 30.3833H32.021C32.6873 30.3833 33.2174 29.8351 33.1457 29.2034C32.683 25.1333 29.9213 25.2006 29.9213 23.3833C29.9213 21.566 32.7183 21.667 33.1454 17.5632C33.2127 16.9312 32.6873 16.3833 32.021 16.3833H24.5909C23.9246 16.3833 23.4006 16.9312 23.4665 17.5632C23.8936 21.667 26.6906 21.5323 26.6906 23.3833C26.6906 25.2343 23.9289 25.1333 23.4665 29.2034C23.3945 29.8351 23.9246 30.3833 24.5909 30.3833Z" stroke="black" stroke-width="1.07692" stroke-linecap="round" stroke-linejoin="round"/>
<path d="M31.2447 29.3056H25.3832C24.8582 29.3056 24.7101 28.6998 25.0783 28.3242C25.9694 27.421 27.7682 26.7741 27.7682 25.7383V22.3056C27.7682 21.6376 26.4894 21.1277 25.6982 20.0441C25.5676 19.8653 25.5807 19.6133 25.9125 19.6133H30.716C30.999 19.6133 31.0602 19.8633 30.9313 20.0424C30.1516 21.1277 28.8451 21.6342 28.8451 22.3056V25.7383C28.8451 26.7657 30.72 27.32 31.5509 28.3253C31.8858 28.7304 31.7686 29.3056 31.2447 29.3056Z" fill="black"/>
</svg>
