<svg width="56" height="56" viewBox="0 0 56 56" fill="none" xmlns="http://www.w3.org/2000/svg">
<path d="M7.39608 44.0254H51.7734C52.2072 44.0255 52.6334 43.9112 53.0089 43.6939C53.3843 43.4767 53.6958 43.1642 53.9119 42.7881C54.128 42.4119 54.241 41.9854 54.2396 41.5516C54.2381 41.1178 54.1222 40.6921 53.9036 40.3174L36.6457 10.7325C35.7606 9.21626 33.2705 9.22119 32.383 10.7325L24.3236 24.5486L21.8089 20.5251C21.5874 20.1718 21.2799 19.8806 20.915 19.6788C20.5502 19.4769 20.1401 19.3711 19.7231 19.3713H19.7207C19.3029 19.3717 18.8922 19.4783 18.5269 19.6809C18.1616 19.8836 17.8539 20.1758 17.6325 20.53L5.30541 40.2533C5.07217 40.6265 4.94306 41.0553 4.93151 41.4953C4.91996 41.9352 5.02638 42.3702 5.23972 42.7551C5.45306 43.14 5.76555 43.4608 6.14474 43.6842C6.52392 43.9076 6.95599 44.0254 7.39608 44.0254ZM34.5156 16.8689L47.4812 39.0946H33.4185L27.2895 29.265L34.5156 16.8689ZM19.7256 26.484L27.605 39.0946H11.8461L19.7256 26.484Z" fill="black"/>
</svg>
